# xmcd CD database file
#
# Track frame offsets:
#	182
#	35980
#	74617
#	93360
#	183357
#
# Disc length: 2478 seconds
#
# Revision: 0
# Processed by: cddbd v1.5.1PL0 Copyright (c) Steve Scherf et al.
# Submitted via: CDex 1.51
#
DISCID=4509ac05
DTITLE=Bud Powell - At The Golden Circle Vol5
DYEAR=1962
DGENRE=Jazz
TTITLE0=Hot House
TTITLE1=This Is No Laughin'Matter
TTITLE2=52nd Street Theme
TTITLE3=Straight No Chaser
TTITLE4=Thanks By Bud Powell
EXTD=YEAR: 1962
EXTT0=
EXTT1=
EXTT2=
EXTT3=
EXTT4=
PLAYORDER=
